inDegrees=no
num_controls=7
num_derivatives=13
num_iterations=107
num_multipliers=7
num_parameters=0
num_slacks=7
num_states=26
objective=0.484762
objective_accelerations=0.028385
objective_balance=0.007731
objective_effort=0.062930
objective_height=0.379853
objective_ligament=0.005862
solver_duration=1438.822432
status=Solve_Succeeded
success=true
DataType=double
version=3
OpenSimVersion=4.5
endheader
time	/jointset/ground_pelvis/pelvis_tilt/value	/jointset/ground_pelvis/pelvis_tx/value	/jointset/ground_pelvis/pelvis_ty/value	/jointset/hip_l/hip_flexion_l/value	/jointset/hip_l/hip_adduction_l/value	/jointset/hip_l/hip_rotation_l/value	/jointset/back/lumbar_extension/value	/jointset/patellofemoral_l/patellar_flexion_l/value	/jointset/knee_l/knee_flexion_l/value	/jointset/knee_l/knee_adduction_l/value	/jointset/knee_l/knee_rotation_l/value	/jointset/ankle_l/ankle_angle_l/value	/jointset/subtalar_l/subtalar_angle_l/value	/jointset/ground_pelvis/pelvis_tilt/speed	/jointset/ground_pelvis/pelvis_tx/speed	/jointset/ground_pelvis/pelvis_ty/speed	/jointset/hip_l/hip_flexion_l/speed	/jointset/hip_l/hip_adduction_l/speed	/jointset/hip_l/hip_rotation_l/speed	/jointset/back/lumbar_extension/speed	/jointset/patellofemoral_l/patellar_flexion_l/speed	/jointset/knee_l/knee_flexion_l/speed	/jointset/knee_l/knee_adduction_l/speed	/jointset/knee_l/knee_rotation_l/speed	/jointset/ankle_l/ankle_angle_l/speed	/jointset/subtalar_l/subtalar_angle_l/speed	/forceset/tau_hip_flexion_l	/forceset/tau_hip_adduction_l	/forceset/tau_hip_rotation_l	/forceset/tau_knee_flexion_l	/forceset/tau_ankle_angle_l	/forceset/tau_subtalar_angle_l	/forceset/tau_lumbar_extension	lambda_cid13_p0	lambda_cid13_p1	lambda_cid13_p2	lambda_cid13_p3	lambda_cid13_p4	lambda_cid13_p5	lambda_cid14_p0	/jointset/ground_pelvis/pelvis_tilt/accel	/jointset/ground_pelvis/pelvis_tx/accel	/jointset/ground_pelvis/pelvis_ty/accel	/jointset/hip_l/hip_flexion_l/accel	/jointset/hip_l/hip_adduction_l/accel	/jointset/hip_l/hip_rotation_l/accel	/jointset/back/lumbar_extension/accel	/jointset/patellofemoral_l/patellar_flexion_l/accel	/jointset/knee_l/knee_flexion_l/accel	/jointset/knee_l/knee_adduction_l/accel	/jointset/knee_l/knee_rotation_l/accel	/jointset/ankle_l/ankle_angle_l/accel	/jointset/subtalar_l/subtalar_angle_l/accel	gamma_cid13_p0	gamma_cid13_p1	gamma_cid13_p2	gamma_cid13_p3	gamma_cid13_p4	gamma_cid13_p5	gamma_cid14_p0
0	-0.1352360721206384	0.04535485122350253	0.9043903203695112	0.3774924667018715	-0.09520016040453566	0.0496302332450298	-0.01265067647494873	0.03223648243721459	0.03223648243721463	0.174532885984822	-0.174532919491075	-0.04231377076293093	0.1496488310565249	0	0	0	0	0	0	0	0	0	0	0	0	0	0.1983736609715487	0.02773470100115092	0.08779540325417205	-0.3797846557314701	0.398108898395624	0.09263042171997757	-0.1248658827048759	91.23312576076923	-19.8630823559823	-38.74537069952656	-21.47535048043331	-607.3988306506976	-76.0563631148252	-34.19563327147635	-5.260170738174435	-1.896584819721793	-0.9309219429333282	10.54863154318461	0.2164586460514881	-2.155637438247774	-5.452808385787296	3.921184735420805	3.921184735419346	-0.005285078954213776	2.762787625219679	-0.84962718839972	-0.03185899914826909	-1.060656435199896e-08	-1.134770195732275e-07	-6.590608376569375e-09	1.103320492660402e-09	1.852888828847318e-08	-1.010832741016709e-08	5.270910050431798e-10
0.01	-0.1354919434507971	0.04526077060313261	0.9043446807062416	0.3780094872158842	-0.09518925601595367	0.04951842830737713	-0.01292342279395743	0.03242868036250057	0.03242868036250057	0.1745326281875904	-0.1743911355720981	-0.04235613508886148	0.1496474113947227	-0.05084030470575837	-0.01876876076092553	-0.009094127602363689	0.1029597905944843	0.002170465059502686	-0.02218444728509069	-0.05418846034030882	0.03843607242024742	0.03843607242024688	-4.302509496788938e-05	0.02816705075732922	-0.008399572756264415	-0.0002724062168013001	0.1889087602184682	0.009256971252856457	0.08525935760351283	-0.3661478370351666	0.3750442162094017	0.1092662683534571	-0.1177039990296936	85.11705351204897	-26.80977518156451	-36.73250894654271	-18.31184393225971	-607.4942543951732	-91.11591670242179	-34.20090608563071	-4.945866241255076	-1.859916986654141	-0.8935837053765826	10.10300618831976	0.2157989792677898	-2.223371102123139	-5.347744338935642	3.804291494381578	3.804291494382479	-0.002551937553297536	2.815198165211204	-0.8241351502602932	-0.02318359232163999	-1.592213861199424e-08	-1.48110285910907e-07	-1.172979415706385e-08	-5.722016210104495e-09	-6.609888346072203e-09	-1.334890120010821e-08	-1.191438978580333e-09
0.02	-0.1362461990089093	0.04498042331867822	0.9042091146596505	0.3795427763099892	-0.09515695526810218	0.0491900743511773	-0.01372722961252614	0.03300513361179896	0.03300513361179904	0.1745321919968554	-0.1739733742727045	-0.04248029770855867	0.1496436172388775	-0.09967684559065586	-0.03725333281689557	-0.01798527666428837	0.2032537160185469	0.004279271853731726	-0.04330980370951835	-0.1062120999119364	0.07685106480268929	0.07685106480269802	-3.567870134485211e-05	0.05519547608352489	-0.01635965875334869	-0.0004748988086258878	0.1794438594653797	-0.009220758495441347	0.08272331195285151	-0.3525110183388717	0.3519795340231763	0.1259021149869321	-0.1105421153545149	79.04936438602125	-33.7736667068798	-34.70693874654379	-15.12651628629002	-606.8092026390875	-106.1062209316995	-34.21667986347151	-4.859417974002256	-1.839747078730696	-0.890326234845527	10.01545850910028	0.2041269929967638	-1.943819266115172	-5.019844232051044	3.916968727859694	3.916968727860197	0.004789218763981048	2.535062538992971	-0.7617298365636924	-0.01787627415292155	-2.123771287198952e-08	-1.827435522485865e-07	-1.686897993755832e-08	-1.254735291286939e-08	-3.174866498061759e-08	-1.658947499004933e-08	-2.909968962203847e-09
0.03	-0.137479195892645	0.04451765051967266	0.9039856379030708	0.3820647931879094	-0.09510396354472324	0.04865574898068946	-0.01503934715450134	0.03396555478081612	0.03396555478081615	0.1745321509651186	-0.1732911625913547	-0.04268062606102844	0.1496384725305377	-0.1466043377307463	-0.05515274018735603	-0.02667509151218367	0.3006040036470453	0.006288322970270125	-0.06341668741788982	-0.1557641226966288	0.1152387653578521	0.1152387653578579	1.572072449937312e-05	0.08108322712929457	-0.02349333804867506	-0.0005157944436865683	0.1716302860372832	-0.003573111962112218	0.08078423309772566	-0.3444426837404618	0.3465401647242073	0.1193905501469987	-0.104165997804066	76.94794673947995	-31.39141253831169	-34.15733745345594	-15.07088910215947	-606.4154891911154	-101.2972328746907	-34.24304414784514	-4.561688881560266	-1.742767083721731	-0.8530680901454786	9.512962052633208	0.1947161386659207	-2.023340617815735	-4.855788433708259	3.800510761845589	3.800510761844826	0.003517634708702927	2.591078449658708	-0.6572970516539368	0.008572503919833194	-3.489303545632593e-08	-2.18271058261077e-07	-2.526384173435056e-08	-1.097323481670591e-08	-8.661674249757244e-08	-2.387277023104776e-08	-5.893714311184013e-09
0.04	-0.1391719225072911	0.04388033774345889	0.9036763112019354	0.3855439425746959	-0.09503179691664233	0.047924511234194	-0.01683356635072948	0.03531002096388534	0.0353100209638851	0.1745322643936785	-0.1723549839870883	-0.04294591322157885	0.1496340726082677	-0.1916227917727508	-0.07216132825853785	-0.03515526557543085	0.3946802177918876	0.008114252794149695	-0.08269227891096553	-0.202632430762518	0.1536600676130556	0.1536600676130559	-4.78664109368036e-06	0.105988860666654	-0.02935142036947443	-0.0003259415946481086	0.1638167126091835	0.002074534571218864	0.07884515424260286	-0.3363743491420509	0.3411007954252389	0.1128789853070673	-0.0977898802536204	74.88969644912237	-29.02491626485478	-33.59585940327153	-15.00555252294532	-605.3350578443108	-96.41863783069313	-34.27990589485194	-4.477610354385076	-1.661583218874971	-0.8483980779159006	9.360643812369082	0.1675027344650004	-1.777560823056024	-4.483101288290387	3.923689067867831	3.923689067867834	-0.009592139523469902	2.33863903731093	-0.5066104416582906	0.02827342266690911	-4.872031161436008e-08	-2.53817002205007e-07	-3.372583087168502e-08	-9.225932085512966e-09	-1.420977952904533e-07	-3.123942055351128e-08	-8.903546574913802e-09
0.05	-0.1413056355842442	0.04307676706530211	0.9032830504524799	0.3899483414093063	-0.09494212489100497	0.04700514538710088	-0.01908392231253407	0.03703838487863379	0.03703838487863383	0.1745323148891086	-0.17117506759508	-0.04326453758086117	0.1496324901317361	-0.2348079946569285	-0.08846477040860705	-0.04347626234919682	0.4857096104406557	0.009786209146013903	-0.1010357248173801	-0.2471053891996831	0.1919660290065939	0.1919660290065938	1.024632832684229e-05	0.1298346261760817	-0.03426616430467954	7.94382359949272e-06	0.1548708998995048	0.002033991873741296	0.07636476048834658	-0.3260047657272189	0.3298415901494066	0.1117814115177551	-0.09091046101459346	71.36046714675425	-28.87008945922476	-32.54707414543607	-13.59469091073125	-604.036210103254	-96.26963233548108	-34.3271745662157	-4.192206690666754	-1.601520999504771	-0.8208860500251531	8.900588025315402	0.1619998594470204	-1.840966760588468	-4.379387261623128	3.77704853062319	3.77704853062313	0.006304965691171422	2.383567888840547	-0.4678314993132373	0.03576623025120088	-5.473086121792135e-08	-2.661281723640981e-07	-4.050529196622147e-08	-9.356921452134597e-09	-1.746468881942795e-07	-3.110914735124687e-08	-1.037592383303734e-08
0.06	-0.1438618469770857	0.04211280270835827	0.902807192620703	0.3952483343772414	-0.0948367417470689	0.04590669902371258	-0.02176900668674906	0.03914840817842286	0.03914840817842281	0.1745323665043375	-0.1697614890317604	-0.04362909440546787	0.1496342105351564	-0.2761224549504114	-0.1042400640159504	-0.05167468203969154	0.5737990444568134	0.01125647645387343	-0.1185083821699667	-0.2895781132445903	0.2299919446211868	0.2299919446211862	-4.562681598195134e-06	0.1527212949287841	-0.03853791343434929	0.0003346343957477332	0.1459250871898245	0.001993449176264593	0.0738843667340926	-0.3156351823123879	0.3185823848735736	0.1106838377284435	-0.08403104177556728	67.86958877371379	-28.72693344471065	-31.49076834743355	-12.18566314205352	-602.1333706451881	-96.04042897402759	-34.38468997033716	-4.103461836246137	-1.555953510329807	-0.8238826612616492	8.772652085846993	0.1271649256640631	-1.603403112290445	-4.083054409838783	3.867679912078758	3.867679912078746	-0.01556053539258407	2.146819685965906	-0.3780114805512138	0.02683445344703643	-6.041228549287323e-08	-2.774610362585645e-07	-4.721390977474536e-08	-9.566996801822105e-09	-2.062304248922508e-07	-3.066321421109918e-08	-1.178356614355641e-08
